<svg width="64" height="56" viewBox="0 0 64 56" fill="none" xmlns="http://www.w3.org/2000/svg">
<path d="M22.3256 24.3163H16.3721C15.5535 24.3163 14.8837 24.9794 14.8837 25.7898V31.6837C14.8837 32.4941 15.5535 33.1571 16.3721 33.1571H22.3256C23.1442 33.1571 23.814 32.4941 23.814 31.6837V25.7898C23.814 24.9794 23.1442 24.3163 22.3256 24.3163ZM20.8372 30.2102H17.8605V27.2632H20.8372V30.2102ZM62.5116 25.7898H56.5581V19.8959C56.5581 19.0855 55.8884 18.4224 55.0698 18.4224H49.1163V14.002C49.1163 13.1916 48.4465 12.5285 47.6279 12.5285H43.1628V9.58156H47.6279C48.4465 9.58156 49.1163 8.9185 49.1163 8.10809V2.2142C49.1163 1.40379 48.4465 0.740723 47.6279 0.740723H41.6744C40.8558 0.740723 40.186 1.40379 40.186 2.2142V6.63462H35.7209C34.9023 6.63462 34.2326 7.29768 34.2326 8.10809V12.5285H29.7674V8.10809C29.7674 7.29768 29.0977 6.63462 28.2791 6.63462H23.814V2.2142C23.814 1.40379 23.1442 0.740723 22.3256 0.740723H16.3721C15.5535 0.740723 14.8837 1.40379 14.8837 2.2142V8.10809C14.8837 8.9185 15.5535 9.58156 16.3721 9.58156H20.8372V12.5285H16.3721C15.5535 12.5285 14.8837 13.1916 14.8837 14.002V18.4224H8.93023C8.11163 18.4224 7.44186 19.0855 7.44186 19.8959V25.7898H1.48837C0.669767 25.7898 0 26.4528 0 27.2632V47.8919C0 48.7023 0.669767 49.3653 1.48837 49.3653H7.44186C8.26046 49.3653 8.93023 48.7023 8.93023 47.8919V39.051H13.3953V47.8919C13.3953 48.7023 14.0651 49.3653 14.8837 49.3653H19.3488V53.7858C19.3488 54.5962 20.0186 55.2592 20.8372 55.2592H26.7907C27.6093 55.2592 28.2791 54.5962 28.2791 53.7858V47.8919C28.2791 47.0815 27.6093 46.4184 26.7907 46.4184H22.3256V43.4715H41.6744V46.4184H37.2093C36.3907 46.4184 35.7209 47.0815 35.7209 47.8919V53.7858C35.7209 54.5962 36.3907 55.2592 37.2093 55.2592H43.1628C43.9814 55.2592 44.6512 54.5962 44.6512 53.7858V49.3653H49.1163C49.9349 49.3653 50.6047 48.7023 50.6047 47.8919V39.051H55.0698V47.8919C55.0698 48.7023 55.7395 49.3653 56.5581 49.3653H62.5116C63.3302 49.3653 64 48.7023 64 47.8919V27.2632C64 26.4528 63.3302 25.7898 62.5116 25.7898ZM43.1628 3.68767H46.1395V6.63462H43.1628V3.68767ZM17.8605 3.68767H20.8372V6.63462H17.8605V3.68767ZM25.3023 52.3123H22.3256V49.3653H25.3023V52.3123ZM41.6744 52.3123H38.6977V49.3653H41.6744V52.3123ZM58.0465 46.4184V37.5776C58.0465 36.7671 57.3767 36.1041 56.5581 36.1041H49.1163C48.2977 36.1041 47.6279 36.7671 47.6279 37.5776V46.4184H44.6512V41.998C44.6512 41.1876 43.9814 40.5245 43.1628 40.5245H20.8372C20.0186 40.5245 19.3488 41.1876 19.3488 41.998V46.4184H16.3721V37.5776C16.3721 36.7671 15.7023 36.1041 14.8837 36.1041H7.44186C6.62326 36.1041 5.95349 36.7671 5.95349 37.5776V46.4184H2.97674V28.7367H8.93023C9.74884 28.7367 10.4186 28.0737 10.4186 27.2632V21.3694H16.3721C17.1907 21.3694 17.8605 20.7063 17.8605 19.8959V15.4755H22.3256C23.1442 15.4755 23.814 14.8124 23.814 14.002V9.58156H26.7907V14.002C26.7907 14.8124 27.4605 15.4755 28.2791 15.4755H35.7209C36.5395 15.4755 37.2093 14.8124 37.2093 14.002V9.58156H40.186V14.002C40.186 14.8124 40.8558 15.4755 41.6744 15.4755H46.1395V19.8959C46.1395 20.7063 46.8093 21.3694 47.6279 21.3694H53.5814V27.2632C53.5814 28.0737 54.2512 28.7367 55.0698 28.7367H61.0233V46.4184H58.0465ZM47.6279 24.3163H41.6744C40.8558 24.3163 40.186 24.9794 40.186 25.7898V31.6837C40.186 32.4941 40.8558 33.1571 41.6744 33.1571H47.6279C48.4465 33.1571 49.1163 32.4941 49.1163 31.6837V25.7898C49.1163 24.9794 48.4465 24.3163 47.6279 24.3163ZM46.1395 30.2102H43.1628V27.2632H46.1395V30.2102Z" fill="white"/>
</svg>
