<svg width="22" height="20" viewBox="0 0 22 20" fill="none" xmlns="http://www.w3.org/2000/svg">
<path fill-rule="evenodd" clip-rule="evenodd" d="M1.94035 0.930236C2.52699 0.358289 3.47812 0.358289 4.06476 0.930236L21.06 17.4998C21.6467 18.0718 21.6467 18.9991 21.06 19.571C20.4734 20.143 19.5223 20.143 18.9356 19.571L1.94035 3.00144C1.35371 2.42949 1.35371 1.50218 1.94035 0.930236Z" fill="white"/>
<path fill-rule="evenodd" clip-rule="evenodd" d="M0.931365 19.4258C0.349522 18.8492 0.357268 17.9219 0.948665 17.3547L18.0818 0.920561C18.6732 0.353291 19.6243 0.360843 20.2061 0.937428C20.7879 1.51401 20.7802 2.44129 20.1888 3.00856L3.0557 19.4427C2.46431 20.0099 1.51321 20.0024 0.931365 19.4258Z" fill="white"/>
</svg>
